<svg xmlns="http://www.w3.org/2000/svg" xmlns:xlink="http://www.w3.org/1999/xlink" version="1.1" width="256" height="256" viewBox="0 0 256 256" xml:space="preserve">

<defs>
</defs>
<g style="stroke: none; stroke-width: 0; stroke-dasharray: none; stroke-linecap: butt; stroke-linejoin: miter; stroke-miterlimit: 10; fill: none; fill-rule: nonzero; opacity: 1;" transform="translate(1.4065934065934016 1.4065934065934016) scale(2.81 2.81)" >
	<path d="M 53.36 89 c 3.088 -4.661 4.802 -13.007 4.579 -23.858 L 37.065 54.977 c -13.516 9.595 -19.783 11.757 -27.063 12.908 C 17.754 78.202 32.287 85.585 53.36 89 z" style="stroke: none; stroke-width: 1; stroke-dasharray: none; stroke-linecap: butt; stroke-linejoin: miter; stroke-miterlimit: 10; fill: rgb(237,191,47); fill-rule: nonzero; opacity: 1;" transform=" matrix(1 0 0 1 0 0) " stroke-linecap="round" />
	<path d="M 57.939 65.142 l -0.381 -10.391 c -0.223 -6.087 -7.149 -9.46 -12.079 -5.882 l -8.415 6.107 L 57.939 65.142 z" style="stroke: none; stroke-width: 1; stroke-dasharray: none; stroke-linecap: butt; stroke-linejoin: miter; stroke-miterlimit: 10; fill: rgb(0,0,0); fill-rule: nonzero; opacity: 1;" transform=" matrix(1 0 0 1 0 0) " stroke-linecap="round" />
	<path d="M 57.939 65.142 l -0.381 -10.391 c -0.223 -6.087 -7.149 -9.46 -12.079 -5.882 l -8.415 6.107 L 57.939 65.142 z" style="stroke: none; stroke-width: 1; stroke-dasharray: none; stroke-linecap: butt; stroke-linejoin: miter; stroke-miterlimit: 10; fill: rgb(216,170,43); fill-rule: nonzero; opacity: 1;" transform=" matrix(1 0 0 1 0 0) " stroke-linecap="round" />
	<path d="M 55.687 50.015 L 77.483 5.257 c 0.716 -1.47 0.105 -3.242 -1.366 -3.958 l 0 0 c -1.47 -0.716 -3.242 -0.105 -3.958 1.366 L 50.363 47.423 C 52.401 47.542 54.336 48.484 55.687 50.015 z" style="stroke: none; stroke-width: 1; stroke-dasharray: none; stroke-linecap: butt; stroke-linejoin: miter; stroke-miterlimit: 10; fill: rgb(178,122,48); fill-rule: nonzero; opacity: 1;" transform=" matrix(1 0 0 1 0 0) " stroke-linecap="round" />
	<circle cx="68.612" cy="68.712" r="2.872" style="stroke: none; stroke-width: 1; stroke-dasharray: none; stroke-linecap: butt; stroke-linejoin: miter; stroke-miterlimit: 10; fill: rgb(193,193,193); fill-rule: nonzero; opacity: 1;" transform="  matrix(1 0 0 1 0 0) "/>
	<circle cx="68.867" cy="84.277" r="4.727" style="stroke: none; stroke-width: 1; stroke-dasharray: none; stroke-linecap: butt; stroke-linejoin: miter; stroke-miterlimit: 10; fill: rgb(193,193,193); fill-rule: nonzero; opacity: 1;" transform="  matrix(1 0 0 1 0 0) "/>
	<path d="M 53.36 90 c -0.053 0 -0.106 -0.004 -0.16 -0.013 C 32.461 86.626 17.246 79.191 9.202 68.485 c -0.211 -0.28 -0.259 -0.65 -0.127 -0.976 s 0.424 -0.558 0.771 -0.612 c 7.424 -1.174 13.583 -3.465 26.641 -12.735 c 0.298 -0.213 0.688 -0.244 1.017 -0.084 l 20.874 10.165 c 0.338 0.165 0.555 0.504 0.563 0.879 c 0.223 10.801 -1.463 19.477 -4.745 24.431 C 54.006 89.835 53.692 90 53.36 90 z M 11.829 68.585 c 7.882 9.482 22.012 16.141 41.039 19.32 c 2.776 -4.61 4.217 -12.413 4.081 -22.132 l -19.79 -9.638 C 25.07 64.67 18.763 67.286 11.829 68.585 z" style="stroke: none; stroke-width: 1; stroke-dasharray: none; stroke-linecap: butt; stroke-linejoin: miter; stroke-miterlimit: 10; fill: rgb(0,0,0); fill-rule: nonzero; opacity: 1;" transform=" matrix(1 0 0 1 0 0) " stroke-linecap="round" />
	<path d="M 57.939 66.142 c -0.149 0 -0.299 -0.033 -0.438 -0.101 L 36.627 55.877 c -0.315 -0.154 -0.527 -0.462 -0.558 -0.813 c -0.031 -0.35 0.125 -0.689 0.409 -0.896 l 8.415 -6.107 c 2.62 -1.899 5.921 -2.189 8.83 -0.772 c 2.909 1.417 4.717 4.193 4.835 7.428 l 0.381 10.39 c 0.013 0.352 -0.159 0.684 -0.453 0.875 C 58.32 66.088 58.129 66.142 57.939 66.142 z M 39.001 54.807 l 17.878 8.706 l -0.319 -8.725 c -0.091 -2.483 -1.479 -4.615 -3.713 -5.703 c -2.232 -1.088 -4.769 -0.865 -6.779 0.594 L 39.001 54.807 z" style="stroke: none; stroke-width: 1; stroke-dasharray: none; stroke-linecap: butt; stroke-linejoin: miter; stroke-miterlimit: 10; fill: rgb(0,0,0); fill-rule: nonzero; opacity: 1;" transform=" matrix(1 0 0 1 0 0) " stroke-linecap="round" />
	<path d="M 22.256 79.616 c -0.405 0 -0.786 -0.248 -0.937 -0.649 c -0.193 -0.518 0.069 -1.094 0.586 -1.287 c 4.655 -1.741 8.497 -4.812 11.42 -9.127 c 0.309 -0.456 0.93 -0.577 1.389 -0.268 c 0.458 0.31 0.577 0.932 0.268 1.389 c -3.16 4.666 -7.324 7.99 -12.376 9.879 C 22.491 79.596 22.372 79.616 22.256 79.616 z" style="stroke: none; stroke-width: 1; stroke-dasharray: none; stroke-linecap: butt; stroke-linejoin: miter; stroke-miterlimit: 10; fill: rgb(0,0,0); fill-rule: nonzero; opacity: 1;" transform=" matrix(1 0 0 1 0 0) " stroke-linecap="round" />
	<path d="M 39.98 87.061 c -0.301 0 -0.599 -0.136 -0.796 -0.394 c -0.335 -0.438 -0.251 -1.066 0.188 -1.401 c 2.118 -1.616 3.734 -5.527 4.802 -11.626 c 0.095 -0.544 0.615 -0.905 1.157 -0.813 c 0.544 0.096 0.908 0.614 0.813 1.158 c -1.173 6.702 -2.992 10.912 -5.559 12.87 C 40.404 86.994 40.191 87.061 39.98 87.061 z" style="stroke: none; stroke-width: 1; stroke-dasharray: none; stroke-linecap: butt; stroke-linejoin: miter; stroke-miterlimit: 10; fill: rgb(0,0,0); fill-rule: nonzero; opacity: 1;" transform=" matrix(1 0 0 1 0 0) " stroke-linecap="round" />
	<path d="M 57.939 66.142 c -0.149 0 -0.299 -0.033 -0.438 -0.101 L 36.627 55.877 c -0.315 -0.154 -0.527 -0.462 -0.558 -0.813 c -0.031 -0.35 0.125 -0.689 0.409 -0.896 l 8.415 -6.107 c 2.62 -1.899 5.921 -2.189 8.83 -0.772 c 2.909 1.417 4.717 4.193 4.835 7.428 l 0.381 10.39 c 0.013 0.352 -0.159 0.684 -0.453 0.875 C 58.32 66.088 58.129 66.142 57.939 66.142 z M 39.001 54.807 l 17.878 8.706 l -0.319 -8.725 c -0.091 -2.483 -1.479 -4.615 -3.713 -5.703 c -2.232 -1.088 -4.769 -0.865 -6.779 0.594 L 39.001 54.807 z" style="stroke: none; stroke-width: 1; stroke-dasharray: none; stroke-linecap: butt; stroke-linejoin: miter; stroke-miterlimit: 10; fill: rgb(0,0,0); fill-rule: nonzero; opacity: 1;" transform=" matrix(1 0 0 1 0 0) " stroke-linecap="round" />
	<path d="M 55.686 51.015 c -0.285 0 -0.559 -0.122 -0.75 -0.339 c -1.173 -1.33 -2.861 -2.152 -4.632 -2.256 c -0.334 -0.02 -0.636 -0.204 -0.805 -0.493 c -0.169 -0.288 -0.183 -0.643 -0.036 -0.942 L 71.26 2.226 c 0.957 -1.962 3.33 -2.784 5.295 -1.827 c 1.964 0.957 2.782 3.332 1.827 5.295 L 56.586 50.453 c -0.146 0.301 -0.434 0.509 -0.765 0.554 C 55.776 51.012 55.731 51.015 55.686 51.015 z M 51.86 46.632 c 1.286 0.298 2.497 0.888 3.525 1.717 l 21.198 -43.53 c 0.474 -0.972 0.068 -2.148 -0.904 -2.622 c -0.972 -0.474 -2.147 -0.067 -2.62 0.905 L 51.86 46.632 z" style="stroke: none; stroke-width: 1; stroke-dasharray: none; stroke-linecap: butt; stroke-linejoin: miter; stroke-miterlimit: 10; fill: rgb(0,0,0); fill-rule: nonzero; opacity: 1;" transform=" matrix(1 0 0 1 0 0) " stroke-linecap="round" />
	<path d="M 68.61 72.584 c -2.135 0 -3.872 -1.736 -3.872 -3.871 s 1.737 -3.872 3.872 -3.872 c 2.135 0 3.872 1.737 3.872 3.872 S 70.745 72.584 68.61 72.584 z M 68.61 66.841 c -1.032 0 -1.872 0.84 -1.872 1.872 c 0 1.031 0.84 1.871 1.872 1.871 c 1.032 0 1.872 -0.84 1.872 -1.871 C 70.482 67.68 69.642 66.841 68.61 66.841 z" style="stroke: none; stroke-width: 1; stroke-dasharray: none; stroke-linecap: butt; stroke-linejoin: miter; stroke-miterlimit: 10; fill: rgb(0,0,0); fill-rule: nonzero; opacity: 1;" transform=" matrix(1 0 0 1 0 0) " stroke-linecap="round" />
	<path d="M 68.864 90 c -3.157 0 -5.727 -2.569 -5.727 -5.727 s 2.569 -5.727 5.727 -5.727 s 5.727 2.569 5.727 5.727 S 72.021 90 68.864 90 z M 68.864 80.547 c -2.055 0 -3.727 1.672 -3.727 3.727 S 66.809 88 68.864 88 s 3.727 -1.672 3.727 -3.727 S 70.919 80.547 68.864 80.547 z" style="stroke: none; stroke-width: 1; stroke-dasharray: none; stroke-linecap: butt; stroke-linejoin: miter; stroke-miterlimit: 10; fill: rgb(0,0,0); fill-rule: nonzero; opacity: 1;" transform=" matrix(1 0 0 1 0 0) " stroke-linecap="round" />
	<path d="M 79.999 76.53 c -0.271 0 -0.521 -0.101 -0.71 -0.29 c -0.09 -0.101 -0.17 -0.21 -0.221 -0.33 c -0.05 -0.12 -0.069 -0.25 -0.069 -0.38 c 0 -0.261 0.1 -0.521 0.29 -0.711 c 0.37 -0.369 1.05 -0.369 1.41 0 c 0.1 0.101 0.17 0.2 0.22 0.33 c 0.05 0.12 0.08 0.25 0.08 0.381 c 0 0.13 -0.03 0.26 -0.08 0.38 s -0.12 0.229 -0.22 0.33 c -0.091 0.09 -0.2 0.159 -0.32 0.21 C 80.259 76.5 80.129 76.53 79.999 76.53 z" style="stroke: none; stroke-width: 1; stroke-dasharray: none; stroke-linecap: butt; stroke-linejoin: miter; stroke-miterlimit: 10; fill: rgb(0,0,0); fill-rule: nonzero; opacity: 1;" transform=" matrix(1 0 0 1 0 0) " stroke-linecap="round" />
</g>
</svg>